HIERARCHY
ROOT Hips
{
	OFFSET 0.000000 103.266502 0.000000
	CHANNELS 6 Xposition Yposition Zposition Xrotation Yrotation Zrotation 
	JOINT Spine
	{
		OFFSET -0.002400 12.777504 0.315300
		CHANNELS 3 Xrotation Yrotation Zrotation
		JOINT Spine1
		{
			OFFSET -0.002067 5.816869 0.032633
			CHANNELS 3 Xrotation Yrotation Zrotation
			JOINT Spine1_split
			{
				OFFSET -0.002067 5.816869 0.032633
				CHANNELS 3 Xrotation Yrotation Zrotation
				JOINT Spine2
				{
					OFFSET -0.002067 5.816869 0.032633
					CHANNELS 3 Xrotation Yrotation Zrotation
					JOINT Neck
					{
						OFFSET -0.003700 21.199493 -0.826900
						CHANNELS 3 Xrotation Yrotation Zrotation
						JOINT Head
						{
							OFFSET 0.000000 20.442200 4.834800
							CHANNELS 3 Xrotation Yrotation Zrotation
							JOINT HeadTop_End
							{
								OFFSET 0.000000 34.668396 4.968400
								CHANNELS 3 Xrotation Yrotation Zrotation
								End Site
								{
									OFFSET 0.000000 0.000000 0.000000
								}
							}
						}
					}
					JOINT LeftShoulder
					{
						OFFSET 3.288150 8.794197 -1.372250
						CHANNELS 3 Xrotation Yrotation Zrotation
						JOINT LeftShoulder_split
						{
							OFFSET 3.288150 8.794197 -1.372250
							CHANNELS 3 Xrotation Yrotation Zrotation
							JOINT LeftArm
							{
								OFFSET 11.953299 -2.279007 -0.146200
								CHANNELS 3 Xrotation Yrotation Zrotation
								JOINT LeftForeArm
								{
									OFFSET 18.448900 0.000000 0.000000
									CHANNELS 3 Xrotation Yrotation Zrotation
									JOINT LeftHand
									{
										OFFSET 29.527798 0.000000 0.000000
										CHANNELS 3 Xrotation Yrotation Zrotation
										JOINT LeftHandThumb1
										{
											OFFSET 10.739754 -2.369614 9.225399
											CHANNELS 3 Xrotation Yrotation Zrotation
											JOINT LeftHandThumb2
											{
												OFFSET 4.926170 -2.844131 2.844125
												CHANNELS 3 Xrotation Yrotation Zrotation
												JOINT LeftHandThumb3
												{
													OFFSET 4.614891 -2.664413 2.664409
													CHANNELS 3 Xrotation Yrotation Zrotation
													JOINT LeftHandThumb4
													{
														OFFSET 4.432465 -2.559082 2.559083
														CHANNELS 3 Xrotation Yrotation Zrotation
														End Site
														{
															OFFSET 0.000000 0.000000 0.000000
														}
													}
												}
											}
										}
										JOINT LeftHandIndex1
										{
											OFFSET 26.467674 0.187653 6.405298
											CHANNELS 3 Xrotation Yrotation Zrotation
											JOINT LeftHandIndex2
											{
												OFFSET 8.792900 0.000000 0.000000
												CHANNELS 3 Xrotation Yrotation Zrotation
												JOINT LeftHandIndex3
												{
													OFFSET 10.075203 0.000000 0.000000
													CHANNELS 3 Xrotation Yrotation Zrotation
													End Site
													{
														OFFSET 0.000000 0.000000 0.000000
													}
												}
											}
										}
										JOINT LeftHandMiddle1
										{
											OFFSET 25.764404 0.000000 0.000000
											CHANNELS 3 Xrotation Yrotation Zrotation
											JOINT LeftHandMiddle2
											{
												OFFSET 9.393974 0.000000 0.000000
												CHANNELS 3 Xrotation Yrotation Zrotation
												JOINT LeftHandMiddle3
												{
													OFFSET 10.771950 0.000000 0.000000
													CHANNELS 3 Xrotation Yrotation Zrotation
													End Site
													{
														OFFSET 0.000000 0.000000 0.000000
													}
												}
											}
										}
										JOINT LeftHandRing1
										{
											OFFSET 24.660927 0.144547 -6.225808
											CHANNELS 3 Xrotation Yrotation Zrotation
											JOINT LeftHandRing2
											{
												OFFSET 9.393799 0.000000 0.000000
												CHANNELS 3 Xrotation Yrotation Zrotation
												JOINT LeftHandRing3
												{
													OFFSET 9.928497 0.000000 0.000000
													CHANNELS 3 Xrotation Yrotation Zrotation
													End Site
													{
														OFFSET 0.000000 0.000000 0.000000
													}
												}
											}
										}
										JOINT LeftHandPinky1
										{
											OFFSET 23.655350 0.125290 -12.815412
											CHANNELS 3 Xrotation Yrotation Zrotation
											JOINT LeftHandPinky2
											{
												OFFSET 8.425102 0.000000 0.000000
												CHANNELS 3 Xrotation Yrotation Zrotation
												JOINT LeftHandPinky3
												{
													OFFSET 8.147003 0.000000 0.000000
													CHANNELS 3 Xrotation Yrotation Zrotation
													End Site
													{
														OFFSET 0.000000 0.000000 0.000000
													}
												}
											}
										}
									}
								}
							}
						}
					}
					JOINT RightShoulder
					{
						OFFSET -3.249400 8.794197 -1.372250
						CHANNELS 3 Xrotation Yrotation Zrotation
						JOINT RightShoulder_split
						{
							OFFSET -3.249400 8.794197 -1.372250
							CHANNELS 3 Xrotation Yrotation Zrotation
							JOINT RightArm
							{
								OFFSET -11.953299 -2.279007 -0.146200
								CHANNELS 3 Xrotation Yrotation Zrotation
								JOINT RightForeArm
								{
									OFFSET -18.448900 0.000000 0.000000
									CHANNELS 3 Xrotation Yrotation Zrotation
									JOINT RightHand
									{
										OFFSET -29.527802 0.000000 0.000000
										CHANNELS 3 Xrotation Yrotation Zrotation
										JOINT RightHandThumb1
										{
											OFFSET -10.739754 -2.369614 9.225399
											CHANNELS 3 Xrotation Yrotation Zrotation
											JOINT RightHandThumb2
											{
												OFFSET -4.926170 -2.844131 2.844125
												CHANNELS 3 Xrotation Yrotation Zrotation
												JOINT RightHandThumb3
												{
													OFFSET -4.614891 -2.664413 2.664409
													CHANNELS 3 Xrotation Yrotation Zrotation
													JOINT RightHandThumb4
													{
														OFFSET -4.432465 -2.559082 2.559083
														CHANNELS 3 Xrotation Yrotation Zrotation
														End Site
														{
															OFFSET 0.000000 0.000000 0.000000
														}
													}
												}
											}
										}
										JOINT RightHandIndex1
										{
											OFFSET -26.467674 0.187653 6.405298
											CHANNELS 3 Xrotation Yrotation Zrotation
											JOINT RightHandIndex2
											{
												OFFSET -8.792900 0.000000 0.000000
												CHANNELS 3 Xrotation Yrotation Zrotation
												JOINT RightHandIndex3
												{
													OFFSET -10.075203 0.000000 0.000000
													CHANNELS 3 Xrotation Yrotation Zrotation
													End Site
													{
														OFFSET 0.000000 0.000000 0.000000
													}
												}
											}
										}
										JOINT RightHandMiddle1
										{
											OFFSET -25.764404 0.000000 0.000000
											CHANNELS 3 Xrotation Yrotation Zrotation
											JOINT RightHandMiddle2
											{
												OFFSET -9.393974 0.000000 0.000000
												CHANNELS 3 Xrotation Yrotation Zrotation
												JOINT RightHandMiddle3
												{
													OFFSET -10.771950 0.000000 0.000000
													CHANNELS 3 Xrotation Yrotation Zrotation
													End Site
													{
														OFFSET 0.000000 0.000000 0.000000
													}
												}
											}
										}
										JOINT RightHandRing1
										{
											OFFSET -24.660927 0.144547 -6.225808
											CHANNELS 3 Xrotation Yrotation Zrotation
											JOINT RightHandRing2
											{
												OFFSET -9.393799 0.000000 0.000000
												CHANNELS 3 Xrotation Yrotation Zrotation
												JOINT RightHandRing3
												{
													OFFSET -9.928497 0.000000 0.000000
													CHANNELS 3 Xrotation Yrotation Zrotation
													End Site
													{
														OFFSET 0.000000 0.000000 0.000000
													}
												}
											}
										}
										JOINT RightHandPinky1
										{
											OFFSET -23.655350 0.125290 -12.815412
											CHANNELS 3 Xrotation Yrotation Zrotation
											JOINT RightHandPinky2
											{
												OFFSET -8.425102 0.000000 0.000000
												CHANNELS 3 Xrotation Yrotation Zrotation
												JOINT RightHandPinky3
												{
													OFFSET -8.147003 0.000000 0.000000
													CHANNELS 3 Xrotation Yrotation Zrotation
													End Site
													{
														OFFSET 0.000000 0.000000 0.000000
													}
												}
											}
										}
									}
								}
							}
						}
					}
				}
			}
		}
	}
	JOINT LeftUpLeg
	{
		OFFSET 11.394100 -6.187798 -0.413800
		CHANNELS 3 Xrotation Yrotation Zrotation
		JOINT LeftLeg
		{
			OFFSET 0.430247 -32.302673 3.732800
			CHANNELS 3 Xrotation Yrotation Zrotation
			JOINT LeftFoot
			{
				OFFSET -0.430247 -48.264931 -6.423300
				CHANNELS 3 Xrotation Yrotation Zrotation
				JOINT LeftToeBase
				{
					OFFSET 4.230900 -16.068199 23.438400
					CHANNELS 3 Xrotation Yrotation Zrotation
					JOINT LeftToe_End
					{
						OFFSET 4.510700 0.695400 19.974600
						CHANNELS 3 Xrotation Yrotation Zrotation
						End Site
						{
							OFFSET 0.000000 0.000000 0.000000
						}
					}
				}
			}
		}
	}
	JOINT RightUpLeg
	{
		OFFSET -11.333700 -6.187798 -0.413800
		CHANNELS 3 Xrotation Yrotation Zrotation
		JOINT RightLeg
		{
			OFFSET -0.430392 -32.302628 3.733000
			CHANNELS 3 Xrotation Yrotation Zrotation
			JOINT RightFoot
			{
				OFFSET 0.430392 -48.264973 -6.423500
				CHANNELS 3 Xrotation Yrotation Zrotation
				JOINT RightToeBase
				{
					OFFSET -4.230900 -16.068199 23.438400
					CHANNELS 3 Xrotation Yrotation Zrotation
					JOINT RightToe_End
					{
						OFFSET -4.510700 0.695400 19.974600
						CHANNELS 3 Xrotation Yrotation Zrotation
						End Site
						{
							OFFSET 0.000000 0.000000 0.000000
						}
					}
				}
			}
		}
	}
}
MOTION
Frames: 4
Frame Time: 0.016667
-33.124699 49.956459 281.719940 189.997612 13.667747 -177.344482 16.798437 -3.852827 -8.880798 3.969191 -0.741154 -2.119502 0.000000 0.000000 0.000000 3.979512 -0.739450 -2.101520 0.912699 0.186796 0.154902 -20.090703 -2.727752 8.655179 -0.000000 0.000002 0.000000 1.384113 -5.715091 -11.757634 0.000000 0.000000 0.000000 -18.360582 -40.146226 -47.046124 -0.000016 -56.855458 -0.000019 40.891882 -11.279977 -14.873582 -9.353692 -4.410871 -1.012468 21.377773 38.831138 0.008471 -0.454415 -2.425693 17.060583 0.000000 0.000000 0.000001 1.241268 5.556527 -31.143743 2.581742 4.855108 -55.983908 0.000000 -0.000001 -0.000002 2.333427 7.138687 -41.308226 3.977871 5.544102 -71.298139 -0.000000 0.000000 0.000001 2.817951 7.449829 -47.416604 3.975400 5.543274 -71.272402 -0.000001 0.000000 0.000002 2.416437 7.232799 -41.295522 3.976823 5.543746 -71.287081 -0.000001 0.000001 -0.000003 -4.126464 21.353056 -2.025800 0.000000 0.000000 0.000000 -21.913704 29.410771 24.489274 0.000009 107.646438 -0.000000 -60.125882 14.340469 -11.279303 49.904545 33.562457 -17.441684 11.431396 -12.158976 7.800707 -6.278449 -26.632924 -3.654664 -0.000000 -0.000002 0.000001 0.249904 -3.804213 14.940632 2.023876 -3.842600 55.538724 -0.000001 0.000000 0.000002 1.128265 -5.542194 26.437082 1.145644 -3.061076 41.030285 -0.000000 -0.000000 -0.000001 1.283881 -5.672058 29.821897 1.502251 -3.427476 47.325267 0.000001 -0.000000 0.000002 1.244967 -5.502218 26.494335 0.986028 -2.867626 37.944679 -0.000001 0.000000 0.000001 -111.599861 -10.729352 37.312668 107.878965 -3.472060 -4.062446 19.406212 -8.107142 10.679559 -0.468324 0.000006 0.000007 0.000000 -0.000001 0.000000 -118.605852 15.094416 -13.406219 112.086826 -4.457834 2.739493 17.194344 0.946476 -14.314419 -0.706159 0.000005 -0.000001 -0.000000 0.000000 0.000001 
-33.117085 49.956223 281.719452 189.954145 13.669703 -177.346558 16.786064 -3.838565 -8.865522 3.960999 -0.736598 -2.125365 0.000000 0.000000 0.000000 3.971168 -0.734084 -2.108097 0.911084 0.174946 0.179144 -20.499626 -2.826077 8.645565 -0.000000 -0.000001 -0.000000 1.385422 -5.719503 -11.741863 0.000000 0.000000 0.000000 -18.383995 -40.127337 -47.070587 -0.000026 -56.804836 -0.000028 40.970432 -11.176333 -14.771737 -9.625156 -4.324146 -1.515800 21.379102 38.837572 0.008467 -0.454402 -2.425722 17.060581 0.000000 -0.000001 -0.000001 1.241012 5.556761 -31.144047 2.581812 4.855171 -55.984923 0.000002 0.000000 0.000000 2.333948 7.139061 -41.314585 3.978639 5.544360 -71.305911 -0.000002 0.000002 -0.000001 2.846256 7.466671 -47.739880 3.975199 5.543203 -71.270456 -0.000000 0.000000 0.000001 2.416454 7.232771 -41.296027 3.978148 5.544207 -71.301035 0.000003 -0.000001 -0.000003 -4.269428 21.023292 -2.430173 0.000000 0.000000 0.000000 -22.824067 29.584295 24.643070 0.000015 108.149502 -0.000012 -60.083931 15.273708 -11.131783 49.905119 33.561296 -17.441679 11.433881 -12.159221 7.799879 -6.274816 -26.631550 -3.651592 0.000003 0.000001 0.000001 0.250021 -3.804664 14.942278 2.024041 -3.842687 55.541032 0.000002 0.000000 0.000001 1.128551 -5.542705 26.438810 1.145702 -3.061164 41.031754 -0.000000 -0.000000 0.000001 1.283008 -5.670590 29.822433 1.502293 -3.427524 47.325930 0.000001 -0.000000 0.000002 1.248100 -5.501247 26.496594 0.986098 -2.867730 37.946356 -0.000001 0.000000 0.000001 -111.641553 -10.756217 37.276949 107.878234 -3.467638 -4.060067 19.406652 -8.088453 10.655278 -0.467150 -0.000003 0.000001 0.000000 -0.000000 0.000000 -118.646806 15.078172 -13.416330 112.093301 -4.455937 2.746336 17.190929 0.946204 -14.321143 -0.706780 -0.000008 -0.000000 -0.000000 -0.000002 -0.000000 
-33.106560 49.959343 281.718170 189.946673 13.680189 -177.351381 16.776995 -3.826045 -8.851731 3.953004 -0.732009 -2.129828 0.000000 0.000000 0.000000 3.963048 -0.728871 -2.113283 0.909232 0.164212 0.204962 -20.937805 -2.917532 8.648820 -0.000000 -0.000000 -0.000000 1.385783 -5.726410 -11.728832 0.000000 0.000000 0.000000 -18.401737 -40.104272 -47.092771 0.000008 -56.770777 0.000024 41.050578 -11.060305 -14.665975 -9.875545 -4.238476 -2.020545 21.379086 38.837572 0.008468 -0.454402 -2.425710 17.060578 -0.000000 0.000001 -0.000001 1.240745 5.557035 -31.144423 2.581906 4.855236 -55.986002 0.000001 0.000000 0.000000 2.334234 7.139297 -41.318048 3.978894 5.544447 -71.308616 -0.000000 0.000001 0.000000 2.874039 7.483028 -48.056180 3.975054 5.543146 -71.268858 0.000000 -0.000003 0.000002 2.416463 7.232789 -41.296546 3.978206 5.544223 -71.301574 -0.000000 -0.000003 -0.000002 -4.382719 20.715689 -2.732461 0.000000 0.000000 0.000000 -23.680771 29.747888 24.695007 0.000018 108.551875 -0.000011 -59.952627 16.384384 -10.966996 49.905740 33.560175 -17.441733 11.436412 -12.159723 7.799034 -6.271257 -26.630218 -3.648544 0.000000 0.000001 0.000001 0.250151 -3.805101 14.943875 2.024202 -3.842788 55.543310 -0.000000 -0.000001 0.000001 1.128871 -5.543214 26.440516 1.145777 -3.061266 41.033345 0.000003 -0.000000 -0.000003 1.282216 -5.669141 29.823461 1.502364 -3.427573 47.327006 -0.000002 0.000000 0.000003 1.251207 -5.500296 26.498832 0.986194 -2.867837 37.947964 -0.000002 -0.000001 0.000001 -111.642987 -10.773898 37.250052 107.876916 -3.479758 -4.058071 19.408012 -8.065841 10.660762 -0.465200 -0.000006 0.000001 0.000000 0.000001 0.000000 -118.643227 15.054014 -13.430282 112.086334 -4.443536 2.753904 17.181606 0.942116 -14.337037 -0.707376 -0.000010 0.000002 0.000000 -0.000001 -0.000000 
-33.095127 49.961617 281.712341 189.935963 13.692097 -177.353990 16.768364 -3.818746 -8.837165 3.944887 -0.728171 -2.131929 0.000000 0.000000 0.000000 3.954821 -0.724026 -2.115636 0.906907 0.156212 0.232183 -21.411175 -2.995301 8.669107 0.000000 -0.000001 -0.000000 1.385082 -5.737305 -11.717948 0.000000 0.000000 0.000000 -18.413638 -40.072382 -47.113074 -0.000013 -56.750867 -0.000001 41.115331 -10.949187 -14.571597 -10.109451 -4.152944 -2.519848 21.379091 38.837542 0.008462 -0.454418 -2.425704 17.060585 -0.000000 0.000002 0.000001 1.240492 5.557304 -31.144966 2.582023 4.855305 -55.987214 -0.000004 -0.000002 -0.000003 2.334414 7.139408 -41.320189 3.979004 5.544491 -71.309962 -0.000000 0.000002 0.000001 2.901210 7.498777 -48.364610 3.974929 5.543104 -71.267519 -0.000000 -0.000000 0.000002 2.416495 7.232784 -41.297141 3.977451 5.543970 -71.293719 -0.000001 0.000002 -0.000003 -4.490358 20.422747 -2.985066 0.000000 0.000000 0.000000 -24.488605 29.920914 24.697423 0.000019 108.890366 -0.000012 -59.803142 17.545393 -10.769467 49.906403 33.559069 -17.441802 11.438866 -12.160203 7.798174 -6.267739 -26.628954 -3.645597 0.000000 -0.000003 0.000004 0.250308 -3.805535 14.945478 2.024343 -3.842907 55.545564 0.000001 -0.000000 -0.000000 1.129158 -5.543742 26.442084 1.145905 -3.061385 41.035333 0.000000 0.000000 -0.000001 1.281506 -5.667788 29.825500 1.502488 -3.427669 47.328932 -0.000002 0.000001 -0.000002 1.254265 -5.499366 26.501066 0.986289 -2.867935 37.949583 0.000001 0.000000 0.000002 -111.637693 -10.806076 37.228301 107.876732 -3.481787 -4.054838 19.409132 -8.051067 10.610107 -0.463044 -0.000010 -0.000002 -0.000000 -0.000000 0.000000 -118.645795 15.033950 -13.443254 112.082113 -4.430085 2.761727 17.173155 0.939412 -14.351549 -0.707943 -0.000019 -0.000004 0.000000 0.000001 -0.000000 
